<?xml version="1.0" standalone="no"?>
<!DOCTYPE svg PUBLIC "-//W3C//DTD SVG 20010904//EN"
 "http://www.w3.org/TR/2001/REC-SVG-20010904/DTD/svg10.dtd">
<svg version="1.0" xmlns="http://www.w3.org/2000/svg"
 width="49.000000pt" height="50.000000pt" viewBox="0 0 49.000000 50.000000"
 preserveAspectRatio="xMidYMid meet">

<g transform="translate(0.000000,50.000000) scale(0.100000,-0.100000)"
fill="#000000" stroke="none">
<path d="M279 485 c84 -19 134 -53 171 -118 36 -63 41 -147 11 -212 -20 -44
-78 -100 -125 -121 -17 -7 -24 -13 -15 -14 9 0 38 15 65 33 130 87 141 280 21
382 -42 36 -119 66 -166 64 -14 0 3 -7 38 -14z"/>
<path d="M123 460 c-95 -55 -140 -167 -109 -274 31 -106 127 -177 236 -174
l55 1 -66 7 c-272 27 -310 381 -49 461 20 6 21 7 5 8 -11 0 -44 -13 -72 -29z"/>
<path d="M216 440 c-51 -16 -97 -74 -95 -122 0 -13 3 -18 5 -11 11 26 74 55
119 55 55 0 101 -26 133 -73 20 -28 23 -44 20 -91 -3 -35 -11 -65 -21 -76 -9
-10 -17 -22 -17 -26 0 -15 23 8 51 52 33 52 39 128 15 185 -17 43 -76 93 -123
106 -43 12 -48 12 -87 1z"/>
<path d="M109 389 c-27 -27 -59 -97 -59 -129 0 -74 53 -160 117 -186 38 -16
91 -18 126 -5 32 13 75 69 83 110 l7 31 -32 -29 c-58 -54 -147 -53 -207 2 -58
53 -66 155 -18 208 23 26 9 24 -17 -2z"/>
<path d="M228 299 c-52 -30 -37 -99 22 -99 50 0 69 66 28 94 -26 19 -27 19
-50 5z"/>
</g>
</svg>
